<?xml version="1.0" encoding="utf-8"?>
<!-- Generator: Adobe Illustrator 21.1.0, SVG Export Plug-In . SVG Version: 6.00 Build 0)  -->
<svg version="1.1" id="Слой_1" xmlns="http://www.w3.org/2000/svg" xmlns:xlink="http://www.w3.org/1999/xlink" x="0px" y="0px"
	 viewBox="0 0 48 48" style="enable-background:new 0 0 48 48;" xml:space="preserve">
<style type="text/css">
	.st0{fill:none;}
</style>
<path class="st0" d="M0,0h48v48H0V0z"/>
<path d="M41,6l-0.3,0.1L30,10.2L18,6L6.7,9.8C6.3,9.9,6,10.3,6,10.8V41c0,0.6,0.4,1,1,1l0.3-0.1L18,37.8L30,42l11.3-3.8
	c0.4-0.1,0.7-0.5,0.7-1V7C42,6.4,41.6,6,41,6z M18.1,35.8L7.6,39.7V11.6l10.5-3.5V35.8z M40.4,36.9l-10.3,3.5V12.1l10.3-4V36.9z"/>
</svg>
